<?xml version="1.0" encoding="utf-8"?>
<!-- Generator: Adobe Illustrator 25.2.3, SVG Export Plug-In . SVG Version: 6.00 Build 0)  -->
<svg version="1.1" id="Layer_1" xmlns="http://www.w3.org/2000/svg" xmlns:xlink="http://www.w3.org/1999/xlink" x="0px" y="0px"
	 viewBox="0 0 100 100" style="enable-background:new 0 0 100 100;" xml:space="preserve">
<style type="text/css">
	.st0{fill:#32C3E3;}
	.st1{fill:#FFFFFF;}
	.st2{font-family:'AnimeAce';}
	.st3{font-size:73.7282px;}
	.st4{font-size:33.3776px;}
</style>
<g id="SvgjsG2685" transform="matrix(0.9820592540669653,0,0,0.9820592540669653,-0.054560523427421584,0)">
	<g id="g17">
		<path id="path3" class="st0" d="M20,16.2h0.4L20.1,16L20,16.2z M21.2,15.7C21.2,15.8,21.2,15.8,21.2,15.7l0.5-0.2
			C21.4,15.4,21.3,15.4,21.2,15.7z M17.6,18.1l0.3-0.2c0.1-0.1,0.1-0.2,0.1-0.2h-0.2L17.6,18.1C17.5,18,17.5,18.1,17.6,18.1z
			 M19.6,15.5L19.6,15.5l-0.3,0.2h0.3L19.6,15.5z M17.7,17.7l0.5-0.5c0.1-0.1,0.1-0.2,0.1-0.3h-0.3l-1.1,1l-0.2,0.4l0.6-0.5
			L17.7,17.7z"/>
		<path id="path5" class="st0" d="M10.8,25v-0.2c0.1-0.4,0.3-0.7,0.6-1l0.8-0.5l0.5-0.5l0.6-0.6l0.4-0.4l0.4-0.3
			c0.3-0.2,0.6-0.5,0.7-0.8l0.4-0.5c0.3-0.3,0.7-0.7,0.9-1.2l0.2-0.3l0.3-0.2l-0.2-0.3l0.4-0.5c0.7-0.5,1.3-1.3,2-1.8l0.3-0.3
			c0.1-0.2,0.2-0.4,0.5-0.5l0.7-0.4h0.4c0.3-0.1,0.5-0.3,0.6-0.5v-0.2c0.3-0.5,0.7-1,1.2-1.3l0.7-0.5l0.2-0.2l0.4-0.4l0.9-0.5h0.2
			l-1,0.4l-1.3,0.9c-0.5,0.5-1.3,0.5-1.6,1.3h0.3c-0.6,0.2-1.3,0.5-1.6,1.1c-0.3,0.6-0.7,0.5-1.1,0.8c-0.2,0-0.3,0.2-0.3,0.4
			c-0.7-0.1-1,0.5-1.4,0.8v0.7c-0.6,0.3-1.1,0.7-1.5,1.3c-1.5,0.2-1.5,2-2.7,2.3h-0.1c0,0.1,0,0.1,0,0.2c-0.3,0-0.5,0.2-0.4,0.5
			L12,22.4c-0.6,0.4-0.5,1-0.9,1.6c-0.7,0.5-1,1.4-1.6,2l0.3,0.5l0.2-0.2C10.3,25.8,10.5,25.3,10.8,25z M50.8,5.4l0.5,0.2h0.2
			c0.4,0.2,0.8,0.2,1.3,0.2c0.6-0.1,1.1-0.1,1.7,0.1h1.1c0.4-0.1,0.8,0,1.1,0.3c0,0,0,0.1,0,0.1h-0.4c0,0,0,0.1,0,0.1h0.6
			c0.4-0.2,0.8-0.2,1.2,0c0.2,0,0.1,0.1,0.2,0.2l0.5,0.2h-0.2c-0.2-0.4-0.5-0.4-0.7-0.4c-1.2-0.6-2.5-0.8-3.9-0.8h-0.7
			c-1.1-0.3-2.1-0.4-3.3-0.4h0.2L50.8,5.4z M57.3,8.2h0.2H57.3z M64.1,8.6c0.2,0.2,0.6,0.3,0.9,0.2h0.5c-0.5-0.4-1-0.6-1.6-0.6
			L63.3,8l0.5,0.3L64.1,8.6z M61.1,7.5c0,0.1,0.1,0.2,0.2,0.3h0.2l0.5-0.3c-0.5-0.3-1-0.5-1.6-0.5L61,7.3L61.1,7.5z M67.7,9.9
			l0.7,0.5C68.3,10.1,68.1,9.9,67.7,9.9z"/>
		<path id="path7" class="st0" d="M91.5,71.2l0.5-1.5l0.5-1.4c0.2-0.5,0.5-1.6,0.7-2.4c0-0.2,0.1-0.4,0.3-0.6h0.1v-1
			c0.5-0.1,0.4-0.5,0.5-0.8l0.7-4.2c0.5-1.8,0.5-3.8,0-5.6c0.1-0.5-0.1-1.1-0.5-1.5v-3.9c-0.3-0.8,0.3-1.7-0.4-2.4L93.3,43
			c0-0.1,0-0.1,0-0.2l-0.2-0.5c-0.1-0.1-0.1-0.2,0-0.4h0.1c0.3,0,0.3-0.5,0.3-0.8c-0.1-0.3-0.2-0.7-0.4-1l-0.3-0.4
			c-0.1-0.2-0.2-0.4-0.2-0.6c0-0.6,0-1.2-0.2-1.8v-0.5c-0.2-0.6-0.4-1.4-0.5-2l-0.2-0.5c-0.2-0.3-0.3-0.7-0.4-1
			c-0.1-0.2-0.2-0.5-0.3-0.7l-0.5-0.9c-0.2-0.1-0.3-0.2-0.5-0.2h-0.1v-0.3h-0.2v-0.7h-0.1v-0.2c0,0,0-0.1,0-0.1v-0.2
			c0.1-0.2,0.1-0.3-0.1-0.5c-0.2-0.2-0.3-0.3-0.4-0.5L89,28.6c-0.1-0.4-0.3-0.8-0.6-1.1c-0.2-0.2-0.3-0.4-0.5-0.6l-0.6-1.5
			c-0.1-0.3-0.3-0.6-0.5-0.9l-0.5-0.7c-0.2-0.2-0.3-0.5-0.4-0.7l-0.2-0.3c-0.1-0.1-0.1-0.3-0.1-0.5c0-0.2-0.1-0.3-0.2-0.4L85,21.7
			v0.2c0.1,0.2,0,0.3-0.1,0.3h-0.2l0.3,0.9l0.3,0.5l0.6,0.8h-0.1l-0.2-0.2L85.4,24c-0.1-0.6-0.5-1-1.1-1v-0.6
			c-0.3-1.1-1.5-1.2-2-1.9c-0.2-0.4-0.6-0.7-1-0.8l-0.7-0.8c-0.7-1.1-1.7-2-2.8-2.7l-0.7-0.5l-0.4-0.3c-0.6-0.6-0.9-1.6-2-1.6
			l-0.7-0.5l-0.8-0.6c-0.3-0.7-0.9-1.1-1.6-1.2c-0.6-0.5-1.3-0.9-2.1-1.1l0.2,0.2l0.5,0.4l1.2,0.6c0.7,0.4,1.3,0.9,1.9,1.5
			c0.4,0.4,0.9,0.7,1.4,1l0.5,0.5c0.1,0.1,0.2,0.2,0.1,0.3h-0.1l-0.8-0.3c-0.7-0.1-1.3-0.4-1.8-0.7l-1.1-0.5l-1.2-0.6h-0.2
			c-0.3-0.1-0.4-0.4-0.7-0.5L68.7,12l-2.3-0.5c-0.3-0.2-0.6-0.4-0.8-0.6c-0.3,0-0.6-0.1-0.8-0.3L64,10.2c-0.9-0.2-1.7-0.4-2.5-0.7
			l-0.5-0.2L60,9.1h-0.5l-0.2-0.3V8.7h-1.5l-0.5-0.5L57,8.4l-0.4,0.2h-0.2l-0.8-0.5c-0.5,0.5-1-0.2-1.5-0.1l-0.9-0.3
			c-0.3,0.2-0.7,0.2-1.1,0h-1.1c-0.3,0-0.5-0.3-0.5-0.5l0.3-0.2h0.5c0.1,0.1,0.1,0.2,0.1,0.3c0,0.2,0.2,0.2,0.5,0.2h0.2L51.8,7
			c-0.2-0.2-0.6-0.3-0.9-0.2L50,7.1h-0.1c0.3,0.2,0.2,0.3,0.2,0.5h-1.5l-0.4-0.2L47.6,7h-0.1l-0.6-0.2h-2.1l0.4-0.2l0.7-0.2h0.3
			l1.6-0.3l1-0.2l0.5-0.2h-1c-1-0.2-2-0.2-3.1,0H44l-3.1-0.1c-1.3,0.1-2.5,0-3.5,1.1c-2.3-0.4-4.2,0.6-6.2,1.6l-2,0.8
			c-1.3,0.2-2.4,0.7-3.3,1.6h0.3l0.5-0.3l0.7-0.5l1.2-0.5l0.9-0.2c0.6-0.4,1.1-0.7,1.8-0.8l0.8-0.3h0.2c0.1,0.2,0.5,0,0.6,0h0.2
			c0.1,0,0.1,0.1,0,0.1l-0.5,0.4l0.9-0.3L34,8.3l-1.2,0.6l-1.2,0.4c-0.2,0.1-0.4,0.2-0.5,0.5l-0.2,0.4h0.3l0.4-0.2
			c0.2-0.3,0.5-0.5,0.8-0.5L33.7,9h0.5c0.1,0,0.1,0,0.1,0c0,0.1,0,0.1,0,0.1l0,0c-0.2,0.2-0.5,0.3-0.7,0.5h0.2l-2.9,0.8l-3.4,1.5
			c-0.6,0.5-1.3,0.9-2.1,1.1c-0.5,0.4-1,0.7-1.6,1l-0.7,0.2c-0.2,0.5-0.7,0.8-1.2,0.8l-0.3,0.5c-0.3,0.4-0.7,0.7-1.1,1h-0.1v-0.1
			l-0.2,0.2l-0.2,0.2l-0.9,0.2h-0.5l-0.4,0.5c-0.1,0.1-0.1,0.2,0,0.2h0.1c-0.5,0.5-0.9,1.3-1.6,1.6l-1.2,1.3
			c-0.5,1.1-1.6,1.5-2.4,2.4c-0.7,0.9-1.3,3.5-3.5,3.9l-0.2-0.3l-0.2,0.5c-0.1,0.2-0.2,0.5-0.4,0.7c-0.4,0.6-0.8,1.2-1.1,1.9
			c-0.1,0.1-0.1,0.3-0.1,0.5c0,0.2-0.1,0.5-0.2,0.7l-0.5,1h0.2c0.3,0,0.3,0.3,0.4,0.5l0.7-1c0.1-0.2,0.3-0.5,0.5-0.6
			c0.3-0.2,0.7-0.5,0.8-0.8l0.3-0.3l0.4-0.4l0.5-1h0.2c0.1,0.1,0.1,0.1,0.2,0l0.2-0.4H12v0.7l0.5-0.5c0.1-0.2,0.1-0.3,0-0.5
			c0-0.1,0-0.2,0.1-0.3c0.1-0.1,0.2-0.3,0.3-0.5c0.1-0.4,0.4-0.7,0.7-0.8l0.3-0.2l0.3-0.3c0.3-0.2,0.6-0.5,0.7-0.9l-0.2-0.3
			c0-0.1,0.1-0.3,0.2-0.4h0.5l0.5-0.7l0.5-0.3h0.2c-1.9,2-3.5,4.2-5,6.5h-0.1h0.1c-2,3.2-3.6,6.6-4.8,10.2H6.3l-0.5-0.4
			c-0.2-0.2-0.1-0.6-0.4-0.8h0.1c0.3-0.5-0.1-1.1,0.3-1.6c0.4-0.5,0.1-1.3-0.8-1.1c-0.9,0.2-1.4,0.5-1.2,1.4c0.2,0.9-0.9,1.6-1,2.6
			c-0.1,1-0.5,0.5-0.3,0.8v3.5c0.1,0.7-0.5,1.6,0.7,1.9l1.2,0.8C4.6,47.3,4,48.3,5.3,48C5.1,49.5,5,51,5,52.5c0,1,0.1,2,0.1,3v-0.4
			C5,54.7,5,54.4,4.9,53.9l-0.3,0.3V54H4.3c0,0.5-0.1,0.7-0.4,0.8c-0.1,0.1-0.1,0.3-0.1,0.5c0,0.1,0.1,0.3,0.2,0.2
			c0.1-0.1,0.4,0.2,0.6,0.4c0.3,0.2-0.2,0.3-0.4,0.2C4,56,4,56.1,4,56.3v0.3L4.5,58c0,0.3-0.1,0.5-0.1,0.8c0,0.2,0.1,0.5,0.2,0.7
			H4.3v-0.3L3.7,59v-0.5c0-0.2,0-0.3,0-0.5c-0.1-0.5-0.2-1.1-0.3-1.6c-0.2-1.1-0.2-2.1-0.2-3.2c0-0.2,0-0.3,0.1-0.5V53
			c0,0.2,0.1,0.3,0.1,0.5c0,0.1,0,0.2,0.1,0.4c0.1,0.2,0.2,0.4,0.4,0.4C4.1,54.2,4,54.1,4,54c0-0.2,0-0.3-0.1-0.5
			c-0.2-0.4-0.2-0.8-0.3-1.2c0-0.2-0.1-0.4-0.3-0.6c-0.1-0.2-0.2-0.5-0.2-0.8v-0.7c0-0.3,0.1-0.5,0.1-0.8c0-0.1,0-0.2-0.1-0.4H3.1
			c-0.7,0.4-0.6,0.2-0.9,1.5v1.6c0,0.6-0.1,1.3,0,1.9c0,0.7,0,1.4,0.2,2.1c0,0.2,0,0.3,0,0.5c0,0.3,0,0.6,0.1,0.8
			c0.1,0.4,0.1,0.8,0.1,1.2c-0.1,0.5,0,1.1,0.2,1.6c0,0.1,0,0.2,0,0.4c0,0.2,0,0.5,0.1,0.7C2.9,61.4,3,61.7,3,62
			c0.1,0.7,0.2,1.3,0.5,2c0.1,0.3,0.2,0.6,0.2,0.9c0,0.2,0.1,0.4,0.3,0.6c0.2,0.3,0.4,0.7,0.5,1.1c0.1,0.3,0.2,0.6,0.3,0.9l0.4,1.3
			c0.1,0.5,0.3,0.9,0.5,1.4c0.3,0.6,0.6,1.2,0.7,1.9l0.2,0.5C6.7,72.7,6.9,73,7,73.4c0.1,0.3,0.2,0.5,0.4,0.7
			c0.1,0.1,0.2,0.3,0.2,0.5c0.1,0.3,0.2,0.4,0.4,0.3H8v0.8l0.5,0.9l0.5,0.9l1,1.1l0.4,0.4c0.3,0.3,0.6,0.5,0.8,0.9l0.4,0.3
			c0.2,0.1,0.2,0.3,0.3,0.5l0.2,0.6c0.1,0.3,0.3,0.6,0.5,0.8l0.4,0.2h0.3c0.1,0,0.2,0.1,0.1,0.2c0,0,0,0,0,0c0,0.2,0,0.3,0,0.5
			c0.1,0.2,0.2,0.3,0.4,0.5h0.2c0.4-0.1,0.7,0.2,1.1,0.6h0.1c0-0.1,0.1-0.1,0-0.2v-0.2c0-0.1,0.1-0.2,0.2-0.1
			c0.2,0.1,0.3,0.3,0.3,0.5v0.2c0.1,0.4,0.2,0.7,0.4,1.1c0.5,0.3,0.5,0.3,0.5,0.1c0-0.2,0-0.2,0.2-0.2h0.4l0.2,0.3l0.7,0.5
			c0.6,0.7,1.6,0.6,2.4,1.1l1.6,1.6h0.2c0.3,0.7,0.8,1.2,1.5,1.5c0.2,0.3,0.5,0.5,0.9,0.5c0,0.5,0.5,0.5,1,0.6
			c0.2,0.2,0.4,0.3,0.7,0.4H26c0.3,0.4,0.9,0.5,1.4,0.5l0.8,0.7l2.2,0.8v0.2c0.5,1,1.6,0.6,2.3,0.9l1,0.4H34
			c1.1,0.3,2.2,0.8,3.3,0.5c0,0.1,0,0.2,0,0.4c1,0.6,2.2,0,3.3,0.4c0.5,0.2,1,0.2,1.6,0.1h0.1l0.7,0.2h0.3l0.8,0.2h0.3
			c0.2-0.1,0.3-0.1,0.5,0c0.4,0.2,0.9,0.3,1.4,0.4h0.5c0.2-0.1,0.4-0.1,0.6,0h3.2c0.5,0.1,1,0,1.5-0.1h0.9l0.5-0.2h3l0.5-0.2
			l0.5-0.3h2v0.5h-1.2L57,97c-0.4,0.1-0.6,0-0.9,0.1c-0.3,0.1-0.6,0.2-0.9,0.2L54,97.5h-0.4c-0.5-0.1-0.9-0.1-1.4,0.1h-1.6
			c-0.2,0.1-0.6,0.1-0.8,0h-4.1c-0.3-0.1-0.7,0-1,0.3h-0.3l-0.3-0.2v-0.3h-1.1c-0.4-0.2-0.8-0.2-1.2-0.3h-2.3L39.1,97l-0.5-0.2
			l-1.9-0.4h-0.5l-0.5-0.2l-1.9-0.6l-1.3-0.4h-2c-0.1,0-0.1,0.1-0.1,0.2h0.2c1.2,0.5,2.4,0.8,3.5,1.4h0.3l0.8,0.2l1.3,0.4h1.2
			l0.5,0.2l0.6,0.3l1.6,0.3l1,0.2l1,0.2h0.7l0.7,0.2h2.8l0.9,0.2h2.1l0.9-0.2h2c0.4,0,0.5-0.1,0.6-0.3h0.9c0.3,0,0.5-0.1,0.7-0.3
			c-0.1,0.1,0,0.1,0.1,0.2h0.4v-0.2c0-0.1,0-0.1,0.2-0.2c0.2-0.1,0.5-0.1,0.6,0.1h0.4l0.3-0.2c0.2,0,0.2,0,0.2,0.1h0.6l0.5-0.2
			l0.7-0.4c0.1,0.3,0.4,0.4,1.2,0.2l1.2-0.4h1.1c0.8-0.1,1.8,0,2.4-0.6h0.2l0.4-0.3l1-0.3c0.7-0.1,1.2-0.4,1.8-0.7l0.4-0.2h0.1
			l0.8-0.5l0.4-0.2l0.5-0.2h0.4c0.4-0.1,0.4-0.1,0.5-0.4c0.1-0.3,0-0.1-0.2-0.1h-0.1l0.4-0.5h0.2c0.3-0.1,0.5-0.2,0.6-0.1H72
			c0.4-0.1,0.7-0.4,0.8-0.8c0.3-0.4,1-0.2,1.2-0.7l3.9-2.8c1-0.1,1.3-1,2-1.6c0.7-0.5,2.1-1,2.7-2l0.8-0.4h0.1
			c0.5,0.1,1-0.2,1.1-0.6v0.4c0.7-0.4,1.6,0.3,2.4-0.5c0.7-0.7,0-2.4,0.9-3.4l0.6-0.5c0.7-1.2,1.1-2.4,1.4-3.8l0.2-0.2
			c0-0.3,0-0.6,0.4-0.8c0.3-0.2,0.4-0.7,0.2-1.1h-0.2c0.1-0.1,0.1-0.2,0-0.3c0.6,0,0.7-0.6,1.1-0.9V72c0-0.1,0-0.1,0-0.2
			C91.5,71.6,91.5,71.3,91.5,71.2L91.5,71.2z"/>
		<path id="path9" class="st0" d="M25.9,10.8L25.7,11l-0.4,0.3l0.5-0.2L25.9,10.8z M31.5,9L31.5,9l0.4-0.2h-0.4L31.5,9z M29.1,9.9
			L29.1,9.9L29.1,9.9L29.1,9.9z M10.4,26.1L10,26.4h0.2C10.3,26.3,10.4,26.2,10.4,26.1z M13.1,22.9c0.1-0.2,0.2-0.3,0.3-0.5
			c-0.2,0.1-0.3,0.3-0.5,0.5c-0.1,0.1-0.1,0.2,0,0.2L13.1,22.9z M12,24.3v-0.2c-0.2,0-0.5,0.3-0.7,0.3v0.2
			C11.6,24.8,11.7,24.7,12,24.3z M68.8,10.7L68.8,10.7l-0.4-0.3L68.8,10.7z M66.6,9.4c0.5-0.1,0.7,0.4,1.1,0.5h0.1l-0.3-0.2
			l-0.9-0.5l-1-0.5L65.9,9L66.6,9.4z M60.4,7L60.4,7l-1.2-0.2h0.5L60.4,7z M62.2,7.6L63.3,8C63,7.8,62.6,7.7,62.2,7.6z M54,7.6
			c0.1-0.1,0.2-0.3,0.2-0.5h-0.5l-0.3,0.3l0.4,0.3L54,7.6z M58.4,7.9C58.4,8,58.4,8,58.4,7.9L58.4,7.9z M98.8,55.2h-0.2v-0.4h0.3
			c0.1,0,0.2-0.3,0.1-0.4c-0.1-0.1-0.1-0.6-0.3-0.7c-0.1,0-0.2-0.2-0.2-0.3l0.2-0.4c0-0.1,0-0.1,0-0.2h-0.2l-0.2-0.3
			c-0.1,0.3-0.2,0.5-0.4,0.6c0,0.1,0,0.1,0,0.2c0,0.1,0,0.2-0.1,0.2h-0.1c0,0.1-0.1,0.2-0.1,0.3c-0.2,0.2-0.3,0.5-0.4,0.8
			c0,0.1,0,0.3,0.1,0.4h0.1c-0.1,0.2-0.1,0.5-0.1,0.7v0.4c0,0.2,0,0.3-0.1,0.5h-0.1l-0.4,0.6v0.5c0,0.3-0.1,0.7-0.3,1h-0.1l-0.2-0.2
			c-0.2-0.2-0.2-0.5-0.1-0.7c0.1-0.5,0.1-1,0.1-1.6c0-0.1-0.1-0.2-0.1-0.2c-0.1,0.1-0.1,0.2-0.1,0.3v0.5c0,0.2-0.1,0.5-0.3,0.6
			c-0.2,0.1-0.1,0.2-0.1,0.3l-0.2,0.5l0.3,0.5c-0.2,0.2-0.4,0.1-0.5-0.1v0.9h0.3V60c-0.2,0.4-0.2,0.8-0.3,1.3c0,0.1,0,0.2,0,0.4
			c0,0.4-0.1,0.8-0.2,1.2c0,0.2,0,0.4,0,0.5l-0.3,0.6c-0.1,0.2-0.2,0.4-0.3,0.6l-0.3,0.5l-0.8,2.4c0.3,0.8-0.4,1.4-0.7,1.9
			c0.1,0.8-0.2,1.6-0.7,2.1v0.4c0,0.1,0.1,0.2,0.3,0.1l0.4-0.3l0.2-0.4H93c0.1,0.1,0.2,0.1,0.4-0.1h0.2c0.2,0.1,0.2,0.4,0.1,0.5
			c-0.1,0.2-0.1,0.5-0.1,0.7c0,0.1,0,0.2,0.1,0.2h0.2c0.1,0.1,0.2,0,0.3-0.3l0.2-0.5h0.3c0.4-0.1,0.4-0.1,0.5-0.5l0.5-0.8l0.3-0.5
			l0.4-0.9c0-0.3,0.1-0.7,0.3-0.9c0.1-0.2,0.2-0.4,0.1-0.5c0-0.2,0-0.3,0.2-0.5l0.3-0.4l0.5-0.9c0-0.3,0.1-0.6,0.2-0.8
			c0.2-0.4,0.3-0.8,0.3-1.2c0.1-0.3,0.2-0.6,0.3-0.8v-0.5c-0.1-0.2-0.1-0.2,0-0.5c0.1-0.3,0.1-0.2,0.2-0.2c0.1,0.1,0.1,0.2,0.1,0.3
			l0.2-0.5c0.1-0.2,0.2-0.5,0.2-0.8v-0.3c0-0.1,0-0.3-0.1-0.3v0.4c-0.2,0-0.3,0.2-0.5,0.3c0-0.2,0.1-0.5,0.1-0.7l0.4-0.2
			c0.2-0.2,0.2-0.3,0.2-0.5c0-0.1,0-0.2,0-0.3c0.1-0.4,0.2-0.8,0.2-1.3v-0.2l0.3-0.9h0.1c0.1-0.1,0.1-0.2,0.1-0.3h-0.1
			c-0.1-0.2,0-0.5,0.2-0.7C99.5,55.6,99.2,55.3,98.8,55.2L98.8,55.2z M10.3,30.2c0-0.1,0-0.1,0-0.2l-0.2-0.2L9.9,30l-0.3,0.5
			c0,0.3-0.3,0.5-0.3,0.8v0.2h0.1L10.3,30.2z M97.3,52.6L97.3,52.6c0.3-0.3,0.3-0.7,0.3-1.1c0-0.2,0-0.3,0.2-0.5h0.1v-0.2l-0.2-0.2
			h-0.1c-0.1,0.1-0.2,0.3-0.3,0.3c-0.1,0-0.1,0.1-0.1,0.3v0.3C97.1,51.9,97.2,52.3,97.3,52.6L97.3,52.6z M14,83.8
			c-0.1,0,0,0.2,0,0.3l0.7,0.7h0.1c-0.2-0.3-0.3-0.5-0.2-0.6c-0.2,0-0.3-0.1-0.5-0.2L14,83.8z M98.1,51.8L98.1,51.8
			c0.1-0.2,0.1-0.4,0.1-0.5c-0.3,0.1-0.3,0.1-0.3,0.5C97.9,52.2,98,51.9,98.1,51.8L98.1,51.8z"/>
		<path id="path11" class="st0" d="M98.5,58.4c0.1-0.1,0.1-0.3,0.1-0.5c0-0.1-0.1-0.2-0.1-0.1h-0.2V58
			C98.3,58.4,98.4,58.5,98.5,58.4L98.5,58.4z M98.6,51L98.6,51l-0.1,0.5C98.5,51.4,98.6,51.2,98.6,51z M17.5,86h-0.2v0.2l0.2,0.2
			h0.2v-0.2L17.5,86z M95.7,56C95.7,55.9,95.7,55.9,95.7,56L95.7,56z M11,80.5l0.5,0.5L11,80.5L11,80.5z"/>
		<polygon id="circle13" class="st0" points="11.5,81 11.5,81 11.5,81 		"/>
		<path id="path15" class="st0" d="M10.8,29.6L10.8,29.6l-0.1,0.2L10.8,29.6L10.8,29.6z M86,23.6l-0.2-0.3h-0.1L86,23.6z M7.3,31.7
			c0.1,0,0.1-0.1,0.1-0.2L7.3,31.7L7.3,31.7z M96.3,57.1L96.3,57.1L96.3,57.1z M16.9,85.9L16.9,85.9C16.9,86,17,85.9,16.9,85.9
			L16.9,85.9z M17.1,86.6L17.1,86.6L17.1,86.6L17.1,86.6z"/>
	</g>
</g>
<text transform="matrix(0.871 0 0 1 9.6257 79.266)" class="st1 st2 st3">s</text>
<text transform="matrix(1 0 0 1 63.2414 71.4926)" class="st1 st2 st4">k</text>
</svg>
